<svg id="Color" xmlns="http://www.w3.org/2000/svg" width="1728" height="1296" viewBox="0 0 1728 1296"><defs><style>.cls-1{fill:none;}.cls-2{fill:#fefbfb;}.cls-3{fill:#fe3562;}.cls-4,.cls-5,.cls-6{fill:#fff;}.cls-5{stroke:#000;stroke-miterlimit:10;}.cls-6{font-size:110px;font-family:Audiowide-Regular, Audiowide;}</style></defs><rect class="cls-1" x="285.44" y="503.22" width="1139.56" height="348.44"/><rect class="cls-1" width="1728" height="1296"/><polygon class="cls-2" points="477.42 688.55 476.27 683.99 473.5 684.34 474.88 689.07 477.42 688.55"/><polygon class="cls-2" points="501.08 684.09 500.14 688.96 502.92 689 503.65 684.34 501.08 684.09"/><path class="cls-2" d="M185.47,191.54c-.16-.9-1.37-6.27-2.21-10h-3.21L183,191.9A8.54,8.54,0,0,0,185.47,191.54Z" transform="translate(285.44 503.22)"/><path class="cls-3" d="M171.5,193.72l.06,0,.06,0c4.37,4.29,8.72,6.28,12.93,5.92a13.58,13.58,0,0,0,8.86-4.92l0,0c4.76-4.74,8.45-5.4,10.71-5.12a6.52,6.52,0,0,1,3.87,1.83c8.42,9.52,14.65,7.89,14.72,7.87h.07A13.37,13.37,0,0,0,233,194.6c4.83-5.71,5.09-14.9,5.08-16.76H167.37C168.25,192.38,171.47,193.7,171.5,193.72Zm51.91-13.48h.24c.85,0,2.87.14,3.28.67a.54.54,0,0,1,.11.4c-.07.58-2.13,9.44-2.36,10.45l-.07.27-4.55,0Zm-8.28-.12,3.82.37-.94,6-4.1-.07ZM191.29,180l1.48,5.87-3.77.78-1.78-6.13Zm-7.54.83.06.27c.23,1,2.24,9.88,2.31,10.46a.56.56,0,0,1-.12.4c-.41.53-2.43.63-3.28.65h-.24l-3.28-11.78Z" transform="translate(285.44 503.22)"/><path class="cls-2" d="M223.87,181l-3,10.36,3.2,0c.87-3.74,2.11-9.1,2.27-10A8.65,8.65,0,0,0,223.87,181Z" transform="translate(285.44 503.22)"/><path class="cls-4" d="M216.28,210.27a1.86,1.86,0,0,1-.48.06c-3.66,0-11.58-8.58-11.93-9a1.44,1.44,0,0,0-2.23,0,29.61,29.61,0,0,1-13.57,9.37l0,0h-.27a2.67,2.67,0,0,0,.41.44c13.62,8,28.08.52,29.29-.58a1,1,0,0,0,.19-.22A3.7,3.7,0,0,0,216.28,210.27Z" transform="translate(285.44 503.22)"/><path class="cls-2" d="M210,169.62a11.62,11.62,0,0,0-.14,2.64l21.69-.06h.08c.23.08,1.32.64,1.43,4.93h1.83a21,21,0,0,0-.37-4.32l-.9-.62H237c.64-2,1.29-4.19,1.45-5.1Z" transform="translate(285.44 503.22)"/><path class="cls-2" d="M170.82,172.12c.21.11.64.35-.32,5h2c.1-4.24.91-4.87,1.15-5l.05,0h.06l21.41.16v-2.94l-27.88-2.26a31.51,31.51,0,0,1,1.32,5h2.16Z" transform="translate(285.44 503.22)"/><path class="cls-2" d="M226.72,203.54,223,207l0,0c-.31.12-7.82,2.91-20-9.87l-.06-.07,0-.08a.28.28,0,0,0-.16-.17c-.13,0-.41-.05-1,.34-.66.73-9.21,10.22-15.45,10.22a5,5,0,0,1-.87-.07,2.34,2.34,0,0,1-1.66.36c-1.43-.21-2.93-1.48-4.46-3.78a5.5,5.5,0,0,1-2.3-.25,51,51,0,0,0,6.4,6.61c4.29,3.67,11.09,8.1,19.14,8.34,9.27.28,18.23-4.94,26.65-15.52A8.16,8.16,0,0,1,226.72,203.54Zm-8.86,7.62A27,27,0,0,1,207.59,215a31.47,31.47,0,0,1-5.74.54,27.27,27.27,0,0,1-14-3.75l0,0c-.33-.28-.87-.81-.71-1.29s.64-.43.86-.42a29.18,29.18,0,0,0,13.22-9.17,2,2,0,0,1,3.13,0c2.45,2.67,9.34,9.42,11.85,8.72h.06c.67-.05,1.83,0,2.05.58C218.38,210.47,218.24,210.8,217.86,211.16Z" transform="translate(285.44 503.22)"/><path class="cls-4" d="M253.8,175.15h.26a1,1,0,0,0,.25,0l.06,0,.15-.05.16-.07,0,0A3.41,3.41,0,0,0,256,173c-4.69-26.55-26.94-45.8-52.94-45.8-26.32,0-48.62,19.53-53,46.46a2.85,2.85,0,0,0,1.63,1.43,3.19,3.19,0,0,0,2.75-.89,53.15,53.15,0,0,1,17.13-29.48,47.72,47.72,0,0,1,62.74-.16,53.1,53.1,0,0,1,17.21,29.09,4.59,4.59,0,0,0,2.28,1.47Z" transform="translate(285.44 503.22)"/><path class="cls-3" d="M197.65,159.55v5.8c0,.17.29.41.75.41s.75-.24.75-.41v-5.8c0-.16-.3-.4-.75-.4S197.65,159.39,197.65,159.55Z" transform="translate(285.44 503.22)"/><path class="cls-3" d="M201.26,158v9a.79.79,0,0,0,.75.82.78.78,0,0,0,.74-.82v-9a.78.78,0,0,0-.74-.82A.79.79,0,0,0,201.26,158Z" transform="translate(285.44 503.22)"/><path class="cls-3" d="M204.92,159.55v5.8c0,.17.29.41.75.41s.74-.24.74-.41v-5.8c0-.16-.29-.4-.74-.4S204.92,159.39,204.92,159.55Z" transform="translate(285.44 503.22)"/><path class="cls-2" d="M223.69,148.55a41.94,41.94,0,0,0-41.91-.1c-5.67,3.5-9.46,8.32-10.69,13.57.16.35.93,1.54,3.62.65a22.06,22.06,0,0,1,9.71-12A33.54,33.54,0,0,1,202,145.87a33.08,33.08,0,0,1,17.5,4.75,22.17,22.17,0,0,1,9.76,11.83,6.28,6.28,0,0,0,5-.25C233.08,156.93,229.34,152.09,223.69,148.55Z" transform="translate(285.44 503.22)"/><path class="cls-5" d="M151.16,176.74c-1.37-.19-2.8.61-4.25,2.38l-.08.1v15.06l0,.09c.09.14,2.07,3.3,4.21,3.3l.29,0c1.16-.16,2.1-1.29,2.78-3.36l0-.06v-15l0-.08C154.1,179.1,153.07,177,151.16,176.74Z" transform="translate(285.44 503.22)"/><path class="cls-5" d="M254.86,176.18c-1.16.16-2.1,1.29-2.78,3.36l0,.05v15l0,.08c0,.09,1.08,2.18,3,2.45l.39,0c1.25,0,2.55-.8,3.86-2.4l.08-.1V179.55l-.05-.09C259.27,179.31,257.11,175.86,254.86,176.18Z" transform="translate(285.44 503.22)"/><path class="cls-5" d="M165.75,178.86c.11-.54.22-1.11.34-1.73a5.87,5.87,0,0,0-.67-4.67,4.19,4.19,0,0,0-3.11-1.59,3.19,3.19,0,0,0-3,.66c-2,1.81-2.05,6.11-2.05,6.29V194c.64,4.54,1.79,7.39,3.43,8.47a2.48,2.48,0,0,0,1.34.43,1.93,1.93,0,0,0,.48-.06,3.36,3.36,0,0,0,2.76-1.25,6.59,6.59,0,0,0,1-4.31C164.33,186,164.83,183.47,165.75,178.86Z" transform="translate(285.44 503.22)"/><path class="cls-5" d="M245.53,171.38a2.21,2.21,0,0,0-1.82-.37,3.36,3.36,0,0,0-2.76,1.25,6.58,6.58,0,0,0-1,4.31c1.93,11.24,1.43,13.78.51,18.4-.11.54-.22,1.11-.34,1.72a5.86,5.86,0,0,0,.67,4.67,4.17,4.17,0,0,0,3.11,1.6,4.52,4.52,0,0,0,.93.11,3,3,0,0,0,2-.78c2-1.8,2.05-6.1,2.05-6.29V179.84C248.32,175.31,247.17,172.46,245.53,171.38Z" transform="translate(285.44 503.22)"/><path d="M253.71,175.84l.28,0h.24l.23,0c.94-.22,1.66-1.1,2.16-2.61l0-.09,0-.09a57.36,57.36,0,0,0-18.51-33.17,52.85,52.85,0,0,0-70.39.21,57.25,57.25,0,0,0-18.38,33.61l0,.12,0,.1a3.59,3.59,0,0,0,2.09,1.89,2.26,2.26,0,0,0,.69.1,4.41,4.41,0,0,0,2.69-1.17l-.19-.28.31.07c4.8-23.7,25-40.9,48-40.9,22.79,0,42.93,17,47.91,40.38l.25-.06-.18.18,0,0,0,0a5.19,5.19,0,0,0,2.75,1.7Zm-19.47-31.26a47.72,47.72,0,0,0-62.74.16,53.15,53.15,0,0,0-17.13,29.48,3.19,3.19,0,0,1-2.75.89,2.85,2.85,0,0,1-1.63-1.43c4.43-26.93,26.73-46.46,53-46.46,26,0,48.25,19.25,52.94,45.8a3.41,3.41,0,0,1-1.26,1.94l0,0-.16.07-.15.05-.06,0a1,1,0,0,1-.25,0h-.33a4.59,4.59,0,0,1-2.28-1.47A53.1,53.1,0,0,0,234.24,144.58Z" transform="translate(285.44 503.22)"/><path d="M237.48,172.67c.28-.85,1.66-5.14,1.6-6l0-.35L209.46,169l0,.27c-.17,1.12-.39,3.07,0,3.54a.42.42,0,0,0,.34.18l21.74-.06c.16.12.87.86,1,4.24H173.12c.08-3.27.59-4.11.73-4.28l21.94.16v-4.29l-29.1-2.35-1.07-.08.88.71c.34.28,1.07,3.07,1.54,5.49l.05.28h2.39a25.7,25.7,0,0,1-.62,4.36H166.7l0,.37c.82,14.46,3.95,16.58,4.52,16.84,4.14,4.05,8.29,6.1,12.33,6.1.35,0,.69,0,1,0a13.94,13.94,0,0,0,9.27-5.14c3.6-3.59,7.11-5.29,10.15-4.93a6,6,0,0,1,3.54,1.63c8.46,9.56,14.7,8.22,15.29,8.06a13.91,13.91,0,0,0,10.55-5c5.56-6.56,5.26-17.48,5.25-17.59v-.34h-3.13a22.83,22.83,0,0,0-.32-4.24h2.2Zm-68.88-.59a31.51,31.51,0,0,0-1.32-5l27.88,2.26v2.94l-21.41-.16h-.06l-.05,0c-.24.09-1,.72-1.15,5h-2c1-4.67.53-4.91.32-5l-.06,0ZM238,177.84c0,1.86-.25,11-5.08,16.76a13.37,13.37,0,0,1-10.14,4.73h-.07c-.07,0-6.3,1.65-14.72-7.87a6.52,6.52,0,0,0-3.87-1.83c-2.26-.28-6,.38-10.71,5.12l0,0a13.58,13.58,0,0,1-8.86,4.92c-4.21.36-8.56-1.63-12.93-5.92l-.06,0-.06,0s-3.25-1.34-4.13-15.88Zm-4.41-5.64.9.62a21,21,0,0,1,.37,4.32h-1.83c-.11-4.29-1.2-4.85-1.43-4.93h-.08l-21.69.06a11.62,11.62,0,0,1,.14-2.64l28.41-2.52c-.16.91-.81,3.11-1.45,5.1Z" transform="translate(285.44 503.22)"/><path d="M226.75,202.85l-.18-.08-3.87,3.62c-.67.22-7.89,2.21-19.27-9.69a1,1,0,0,0-.51-.51,1.74,1.74,0,0,0-1.57.42l0,0c-.1.11-9.86,11.07-15.91,10l-.14,0-.11.1a1.66,1.66,0,0,1-1.33.29c-.88-.13-2.31-.88-4.12-3.66l-.12-.18-.19,0a4.37,4.37,0,0,1-3.51-1l-.46.47A48.71,48.71,0,0,0,183,210.8c4.37,3.75,11.3,8.26,19.53,8.51h.72c9.46,0,18.58-5.6,27.12-16.65l.69-.89-1,.33A11.62,11.62,0,0,1,226.75,202.85Zm-24.22,15.76c-8.05-.24-14.85-4.67-19.14-8.34a51,51,0,0,1-6.4-6.61,5.5,5.5,0,0,0,2.3.25c1.53,2.3,3,3.57,4.46,3.78a2.34,2.34,0,0,0,1.66-.36,5,5,0,0,0,.87.07c6.24,0,14.79-9.49,15.45-10.22.56-.39.84-.38,1-.34a.28.28,0,0,1,.16.17l0,.08.06.07c12.19,12.78,19.7,10,20,9.87l0,0,3.71-3.46a8.16,8.16,0,0,0,2.46-.45C220.76,213.67,211.8,218.89,202.53,218.61Z" transform="translate(285.44 503.22)"/><path d="M216.22,209.58h-.06c-2.51.7-9.4-6.05-11.85-8.72a2,2,0,0,0-3.13,0A29.18,29.18,0,0,1,188,210.06c-.22,0-.73,0-.86.42s.38,1,.71,1.29l0,0a27.27,27.27,0,0,0,14,3.75,31.47,31.47,0,0,0,5.74-.54,27,27,0,0,0,10.27-3.85c.38-.36.52-.69.41-1C218.05,209.55,216.89,209.53,216.22,209.58Zm1.24,1c-1.21,1.1-15.67,8.58-29.29.58a2.67,2.67,0,0,1-.41-.44H188l0,0a29.61,29.61,0,0,0,13.57-9.37,1.44,1.44,0,0,1,2.23,0c.35.38,8.27,9,11.93,9a1.86,1.86,0,0,0,.48-.06,3.7,3.7,0,0,1,1.37.13A1,1,0,0,1,217.46,210.62Z" transform="translate(285.44 503.22)"/><path d="M200.63,158v9a1.39,1.39,0,1,0,2.76,0v-9a1.39,1.39,0,1,0-2.76,0Zm2.12,0v9a.78.78,0,0,1-.74.82.79.79,0,0,1-.75-.82v-9a.79.79,0,0,1,.75-.82A.78.78,0,0,1,202.75,158Z" transform="translate(285.44 503.22)"/><path d="M197,159.55v5.8a1.42,1.42,0,0,0,2.76,0v-5.8a1.42,1.42,0,0,0-2.76,0Zm2.13,0v5.8c0,.17-.3.41-.75.41s-.75-.24-.75-.41v-5.8c0-.16.29-.4.75-.4S199.15,159.39,199.15,159.55Z" transform="translate(285.44 503.22)"/><path d="M204.29,159.55v5.8a1.42,1.42,0,0,0,2.76,0v-5.8a1.42,1.42,0,0,0-2.76,0Zm2.12,0v5.8c0,.17-.29.41-.74.41s-.75-.24-.75-.41v-5.8c0-.16.29-.4.75-.4S206.41,159.39,206.41,159.55Z" transform="translate(285.44 503.22)"/><path d="M182.72,192.61c.85,0,2.87-.12,3.28-.65a.56.56,0,0,0,.12-.4c-.07-.58-2.08-9.45-2.31-10.46l-.06-.27H179.2l3.28,11.78Zm.54-11.08c.84,3.74,2.05,9.11,2.21,10a8.54,8.54,0,0,1-2.52.36l-2.9-10.37Z" transform="translate(285.44 503.22)"/><path d="M192.77,185.87,191.29,180l-4.07.52,1.78,6.13Zm-1.94-5.11,1.15,4.57-2.55.52-1.37-4.73Z" transform="translate(285.44 503.22)"/><path d="M224.68,191.76c.23-1,2.29-9.87,2.36-10.45a.54.54,0,0,0-.11-.4c-.41-.53-2.43-.64-3.28-.67h-.24L220.06,192l4.55,0Zm-3.76-.45,3-10.36a8.65,8.65,0,0,1,2.52.38c-.16.9-1.4,6.26-2.27,10Z" transform="translate(285.44 503.22)"/><path d="M219,180.49l-3.82-.37-1.22,6.3,4.1.07Zm-4.26,5.24.94-4.86,2.58.25-.73,4.66Z" transform="translate(285.44 503.22)"/><path d="M224,147.94a42.52,42.52,0,0,0-42.53-.1c-5.86,3.62-9.78,8.64-11,14.12l.3.08-.3.11a2.43,2.43,0,0,0,2.51,1.54,6.37,6.37,0,0,0,2.09-.4L175,163l.3.1a21.26,21.26,0,0,1,9.48-11.76,34,34,0,0,1,34.48-.07,21.42,21.42,0,0,1,9.52,11.6l.3-.11-.11.33a8,8,0,0,0,2.76.51,5.42,5.42,0,0,0,3.1-.9l-.17-.3.31-.07C233.78,156.73,229.9,151.63,224,147.94Zm5.29,14.51a22.17,22.17,0,0,0-9.76-11.83,33.08,33.08,0,0,0-17.5-4.75,33.54,33.54,0,0,0-17.61,4.82,22.06,22.06,0,0,0-9.71,12c-2.69.89-3.46-.3-3.62-.65,1.23-5.25,5-10.07,10.69-13.57a41.94,41.94,0,0,1,41.91.1c5.65,3.54,9.39,8.38,10.57,13.65A6.28,6.28,0,0,1,229.29,162.45Z" transform="translate(285.44 503.22)"/><text class="cls-6" transform="translate(560.52 718.07)">b<tspan x="75.94" y="0">e</tspan><tspan x="147.4" y="0">a</tspan><tspan x="219.05" y="0">t</tspan><tspan x="281.02" y="0">s</tspan><tspan x="346.95" y="0">C</tspan><tspan x="428.41" y="0">o</tspan><tspan x="503.47" y="0">d</tspan><tspan x="580.46" y="0">e</tspan></text></svg>