<svg id="Color" xmlns="http://www.w3.org/2000/svg" viewBox="0 0 1728 1296"><defs><style>.cls-1{fill:none;}.cls-2,.cls-7{fill:#fefbfb;}.cls-3{fill:#fe3562;}.cls-4{fill:#010319;}.cls-5,.cls-6{fill:#fff;}.cls-6{stroke:#000;stroke-miterlimit:10;}.cls-7{font-size:100px;font-family:Separat-Regular, Separat;}</style></defs><rect class="cls-1" x="285.44" y="503.22" width="1139.56" height="348.44"/><rect class="cls-1" width="1728" height="1296"/><polygon class="cls-2" points="816.52 658.21 813.78 647.32 807.17 648.16 810.46 659.47 816.52 658.21"/><polygon class="cls-2" points="872.99 647.58 870.74 659.19 877.38 659.3 879.14 648.17 872.99 647.58"/><path class="cls-2" d="M515.55,169.83c-.39-2.16-3.26-15-5.28-23.9h-7.65l6.9,24.76C512,170.6,514.8,170.25,515.55,169.83Z" transform="translate(285.44 503.22)"/><path class="cls-3" d="M482.21,175l.15,0,.13.12c10.44,10.24,20.81,15,30.86,14.13,13.08-1.12,21.06-11.63,21.14-11.73l.08-.09c11.35-11.31,20.17-12.88,25.56-12.2a15.44,15.44,0,0,1,9.24,4.37c20.11,22.72,35,18.81,35.13,18.77l.16,0c10-.35,18.15-4.14,24.2-11.29,11.55-13.63,12.15-35.55,12.15-40H472.36C474.44,171.82,482.13,175,482.21,175Zm123.9-32.17h.57c2,.06,6.84.34,7.82,1.6a1.3,1.3,0,0,1,.27.95c-.17,1.39-5.09,22.54-5.65,25L609,171l-10.86-.07Zm-19.76-.27,9.11.87-2.26,14.31-9.76-.17Zm-56.91-.29,3.53,14-9,1.86-4.25-14.63Zm-18,2,.15.62c.54,2.42,5.34,23.6,5.5,25a1.3,1.3,0,0,1-.27,1c-1,1.25-5.81,1.5-7.83,1.54h-.57l-7.84-28.11Z" transform="translate(285.44 503.22)"/><path class="cls-2" d="M607.21,144.54l-7,24.72,7.64.05c2.07-8.9,5-21.71,5.42-23.86C612.48,145,609.72,144.66,607.21,144.54Z" transform="translate(285.44 503.22)"/><path class="cls-4" d="M589.09,214.53a4.71,4.71,0,0,1-1.15.13c-8.73,0-27.63-20.46-28.47-21.37a3.44,3.44,0,0,0-5.33,0,70.88,70.88,0,0,1-32.37,22.38l-.11,0h-.1a4.43,4.43,0,0,0-.55,0,6.61,6.61,0,0,0,1,1.05c32.52,19.11,67,1.25,69.9-1.38a2.88,2.88,0,0,0,.47-.51A8,8,0,0,0,589.09,214.53Z" transform="translate(285.44 503.22)"/><path class="cls-2" d="M574.1,117.5a28.69,28.69,0,0,0-.35,6.31l51.77-.14h.11l.1,0c.54.17,3.15,1.52,3.41,11.76h4.36c-.08-4.5-.42-9.45-.87-10.31l-2.16-1.48h8c1.54-4.75,3.08-10,3.47-12.17Z" transform="translate(285.44 503.22)"/><path class="cls-2" d="M480.59,123.47c.5.27,1.51.83-.76,12h4.73c.26-10.13,2.17-11.63,2.76-11.85l.12,0h.13l51.1.38v-7l-66.54-5.38c1.3,3,2.6,9,3.16,11.84h5.14Z" transform="translate(285.44 503.22)"/><path class="cls-2" d="M614,198.48l-8.83,8.25-.13.06c-.75.29-18.66,6.94-47.76-23.56l-.15-.15-.06-.21a.68.68,0,0,0-.4-.39c-.29-.1-1-.14-2.31.79-1.56,1.75-22,24.41-36.87,24.41a12.94,12.94,0,0,1-2.07-.16,5.55,5.55,0,0,1-4,.84c-3.42-.48-7-3.52-10.66-9a12.63,12.63,0,0,1-5.47-.59,120,120,0,0,0,15.26,15.77c10.24,8.77,26.47,19.35,45.69,19.92,22.12.65,43.51-11.81,63.61-37A20.73,20.73,0,0,1,614,198.48Zm-21.14,18.16c-1.42,1.3-10.76,6.66-24.5,9.21a75.25,75.25,0,0,1-13.71,1.28,65.13,65.13,0,0,1-33.41-9l-.1-.06c-.79-.66-2.07-1.94-1.7-3.09s1.54-1,2.07-1a69.7,69.7,0,0,0,31.55-21.88,4.83,4.83,0,0,1,7.48,0c5.84,6.35,22.27,22.47,28.26,20.8l.14,0c1.61-.11,4.39-.07,4.91,1.39C594.11,215,593.78,215.8,592.85,216.64Z" transform="translate(285.44 503.22)"/><path class="cls-5" d="M678.65,130.71a1.82,1.82,0,0,0,.33,0,1.34,1.34,0,0,0,.28,0,3.09,3.09,0,0,0,.6-.08l.13,0,.36-.12.39-.18.08-.05c1.23-.72,2.24-2.28,3-4.65C672.64,62.26,619.54,16.32,557.49,16.32c-62.83,0-116,46.6-126.63,110.87a6.87,6.87,0,0,0,3.89,3.42c1.93.52,4.15-.21,6.58-2.13a126.82,126.82,0,0,1,40.88-70.35A113.91,113.91,0,0,1,632,57.74,126.82,126.82,0,0,1,673,127.18c.49.56,2.91,3.12,5.44,3.5Z" transform="translate(285.44 503.22)"/><path class="cls-2" d="M544.62,93.47v13.85c0,.39.7,1,1.79,1s1.78-.57,1.78-1V93.47c0-.39-.7-1-1.78-1S544.62,93.08,544.62,93.47Z" transform="translate(285.44 503.22)"/><path class="cls-2" d="M553.24,89.69v21.54a1.79,1.79,0,1,0,3.56,0V89.69a1.79,1.79,0,1,0-3.56,0Z" transform="translate(285.44 503.22)"/><path class="cls-2" d="M562,93.47v13.85c0,.39.7,1,1.79,1s1.78-.57,1.78-1V93.47c0-.39-.7-1-1.78-1S562,93.08,562,93.47Z" transform="translate(285.44 503.22)"/><path class="cls-2" d="M606.77,67.21C592.86,58.5,575,53.7,556.56,53.7c-18.28,0-36,4.71-49.82,13.27-13.53,8.36-22.58,19.86-25.51,32.39.38.83,2.21,3.68,8.64,1.56,3.38-11.19,11.6-21.34,23.18-28.59,11.85-7.42,26.77-11.51,42-11.51s29.79,3.92,41.76,11.33c11.53,7.15,19.79,17.16,23.29,28.24,1.42.49,7.21,2.22,11.87-.6C629.19,87.21,620.26,75.66,606.77,67.21Z" transform="translate(285.44 503.22)"/><path class="cls-6" d="M433.66,134.5c-3.26-.45-6.68,1.46-10.14,5.68l-.2.23v36l.13.21c.21.34,4.94,7.89,10,7.89a5.31,5.31,0,0,0,.68-.05c2.79-.39,5-3.08,6.66-8l.05-.14V140.53l-.09-.18C440.68,140.13,438.22,135.13,433.66,134.5Z" transform="translate(285.44 503.22)"/><path class="cls-6" d="M681.18,133.15c-2.79.39-5,3.09-6.66,8l0,.14V177l.09.19c.1.21,2.56,5.21,7.12,5.84a7.43,7.43,0,0,0,.94.07c3,0,6.07-1.93,9.2-5.75l.2-.23v-36l-.13-.21C691.68,140.64,686.53,132.41,681.18,133.15Z" transform="translate(285.44 503.22)"/><path class="cls-6" d="M468.48,139.55c.26-1.29.53-2.65.81-4.11.89-4.76.35-8.5-1.59-11.15a10,10,0,0,0-7.44-3.8,7.55,7.55,0,0,0-7.09,1.58c-4.85,4.31-4.91,14.58-4.91,15v38.58c1.52,10.82,4.27,17.62,8.18,20.19a5.8,5.8,0,0,0,3.21,1,4.16,4.16,0,0,0,1.15-.15,8.07,8.07,0,0,0,6.58-3c3.06-3.86,2.34-10,2.3-10.29C465.09,156.64,466.29,150.57,468.48,139.55Z" transform="translate(285.44 503.22)"/><path class="cls-6" d="M658.9,121.71a5.3,5.3,0,0,0-4.36-.89,8.07,8.07,0,0,0-6.58,3c-3.05,3.86-2.34,10-2.3,10.29,4.61,26.83,3.4,32.9,1.21,43.92-.26,1.29-.53,2.65-.8,4.12-.9,4.75-.36,8.5,1.59,11.14a9.94,9.94,0,0,0,7.43,3.8,9.75,9.75,0,0,0,2.22.27,7.14,7.14,0,0,0,4.87-1.85c4.86-4.31,4.91-14.58,4.91-15V141.9C665.57,131.08,662.81,124.28,658.9,121.71Z" transform="translate(285.44 503.22)"/><path d="M678.42,132.35a4.89,4.89,0,0,0,.66.05h0l.47,0h.09a3.26,3.26,0,0,0,.53-.09c2.25-.52,4-2.61,5.16-6.21l.07-.22,0-.22a136.8,136.8,0,0,0-44.17-79.16,126.13,126.13,0,0,0-168,.5,136.73,136.73,0,0,0-43.87,80.22l-.05.27.11.24c.06.15,1.61,3.61,5,4.53a6.56,6.56,0,0,0,1.65.22c2,0,4.16-.94,6.43-2.79L442,129l.73.18c11.45-56.57,59.63-97.63,114.57-97.63,54.38,0,102.47,40.54,114.34,96.39l.6-.15-.42.43,0,.06,0,0c.15.18,3.15,3.61,6.56,4ZM632,57.74a113.91,113.91,0,0,0-149.75.39,126.82,126.82,0,0,0-40.88,70.35c-2.43,1.92-4.65,2.65-6.58,2.13a6.87,6.87,0,0,1-3.89-3.42c10.59-64.27,63.8-110.87,126.63-110.87,62,0,115.15,45.94,126.36,109.29-.79,2.37-1.8,3.93-3,4.65l-.08.05-.39.18-.36.12-.13,0a3.09,3.09,0,0,1-.6.08,1.34,1.34,0,0,1-.28,0,1.82,1.82,0,0,1-.33,0l-.18,0c-2.53-.38-5-2.94-5.44-3.5A126.82,126.82,0,0,0,632,57.74Z" transform="translate(285.44 503.22)"/><path d="M639.68,124.78c.66-2,4-12.26,3.83-14.25l-.06-.84L572.8,116l-.1.64c-.39,2.68-.93,7.33-.05,8.46a1,1,0,0,0,.8.42l51.89-.14c.38.29,2.08,2.06,2.29,10.13H486.07c.2-7.82,1.41-9.82,1.74-10.23l52.37.39V115.38l-69.44-5.62-2.57-.19,2.09,1.71c.83.67,2.56,7.33,3.69,13.1l.13.66h5.68c.12,1.43-.61,6.18-1.48,10.42h-7.53l.05.89c1.95,34.5,9.44,39.55,10.8,40.19,9.88,9.66,19.76,14.54,29.42,14.54.83,0,1.65,0,2.47-.11,13.4-1.16,21.44-11.37,22.13-12.28,8.6-8.55,17-12.61,24.24-11.75a14.38,14.38,0,0,1,8.44,3.89c20.19,22.82,35.08,19.61,36.49,19.24,10.38-.38,18.86-4.36,25.18-11.82,13.27-15.66,12.55-41.72,12.54-42l0-.8H635c-.09-5.81-.43-8.69-.77-10.13h5.26Zm-164.39-1.4c-.56-2.82-1.86-8.84-3.16-11.84l66.54,5.38v7l-51.1-.38h-.13l-.12,0c-.59.22-2.5,1.72-2.76,11.85h-4.73c2.27-11.16,1.26-11.72.76-12l-.16-.09ZM641,137.13c0,4.44-.6,26.36-12.15,40-6.05,7.15-14.2,10.94-24.2,11.29l-.16,0c-.15,0-15,3.95-35.13-18.77a15.44,15.44,0,0,0-9.24-4.37c-5.39-.68-14.21.89-25.56,12.2l-.08.09c-.08.1-8.06,10.61-21.14,11.73-10.05.86-20.42-3.89-30.86-14.13l-.13-.12-.15,0c-.08,0-7.77-3.2-9.85-37.89Zm-10.54-13.46,2.16,1.48c.45.86.79,5.81.87,10.31h-4.36c-.26-10.24-2.87-11.59-3.41-11.76l-.1,0h-.11l-51.77.14a28.69,28.69,0,0,1,.35-6.31l67.81-6c-.39,2.16-1.93,7.42-3.47,12.17Z" transform="translate(285.44 503.22)"/><path d="M614.07,196.82l-.43-.2-9.24,8.64c-1.58.52-18.83,5.28-46-23.12a2.31,2.31,0,0,0-1.22-1.21c-1-.39-2.24-.06-3.74,1l-.13.12c-.24.27-23.53,26.42-38,23.79l-.34-.05-.26.23a4,4,0,0,1-3.18.69c-2.1-.32-5.51-2.09-9.83-8.73l-.28-.43-.46.09c-.05,0-5.05.89-8.38-2.39l-1.1,1.12a115.94,115.94,0,0,0,18.09,19.44c10.42,8.94,27,19.71,46.6,20.3.57,0,1.14,0,1.71,0,22.58,0,44.35-13.35,64.73-39.72l1.65-2.13-2.43.79C618.67,196.11,614.77,197.08,614.07,196.82Zm-57.8,37.62c-19.22-.57-35.45-11.15-45.69-19.92a120,120,0,0,1-15.26-15.77,12.63,12.63,0,0,0,5.47.59c3.66,5.5,7.24,8.54,10.66,9a5.55,5.55,0,0,0,4-.84,12.94,12.94,0,0,0,2.07.16c14.89,0,35.31-22.66,36.87-24.41,1.34-.93,2-.89,2.31-.79a.68.68,0,0,1,.4.39l.06.21.15.15c29.1,30.5,47,23.85,47.76,23.56l.13-.06,8.83-8.25a20.73,20.73,0,0,0,5.89-1.08C599.78,222.63,578.39,235.09,556.27,234.44Z" transform="translate(285.44 503.22)"/><path d="M588.93,212.87l-.14,0c-6,1.67-22.42-14.45-28.26-20.8a4.83,4.83,0,0,0-7.48,0A69.7,69.7,0,0,1,521.5,214c-.53,0-1.75,0-2.07,1s.91,2.43,1.7,3.09l.1.06a65.13,65.13,0,0,0,33.41,9,75.25,75.25,0,0,0,13.71-1.28c13.74-2.55,23.08-7.91,24.5-9.21.93-.84,1.26-1.64,1-2.38C593.32,212.8,590.54,212.76,588.93,212.87Zm3,2.49C589,218,554.51,235.85,522,216.74a6.61,6.61,0,0,1-1-1.05,4.43,4.43,0,0,1,.55,0h.1l.11,0a70.88,70.88,0,0,0,32.37-22.38,3.44,3.44,0,0,1,5.33,0c.84.91,19.74,21.37,28.47,21.37a4.71,4.71,0,0,0,1.15-.13,8,8,0,0,1,3.27.32A2.88,2.88,0,0,1,591.89,215.36Z" transform="translate(285.44 503.22)"/><path d="M551.73,89.69v21.54a3.31,3.31,0,1,0,6.58,0V89.69a3.31,3.31,0,1,0-6.58,0Zm5.07,0v21.54a1.79,1.79,0,1,1-3.56,0V89.69a1.79,1.79,0,1,1,3.56,0Z" transform="translate(285.44 503.22)"/><path d="M543.12,93.47v13.85c0,1.47,1.44,2.62,3.29,2.62s3.29-1.15,3.29-2.62V93.47c0-1.47-1.45-2.62-3.29-2.62S543.12,92,543.12,93.47Zm5.07,0v13.85c0,.39-.7,1-1.78,1s-1.79-.57-1.79-1V93.47c0-.39.7-1,1.79-1S548.19,93.08,548.19,93.47Z" transform="translate(285.44 503.22)"/><path d="M560.46,93.47v13.85c0,1.47,1.45,2.62,3.3,2.62s3.29-1.15,3.29-2.62V93.47c0-1.47-1.45-2.62-3.29-2.62S560.46,92,560.46,93.47Zm5.08,0v13.85c0,.39-.7,1-1.78,1s-1.79-.57-1.79-1V93.47c0-.39.7-1,1.79-1S565.54,93.08,565.54,93.47Z" transform="translate(285.44 503.22)"/><path d="M509,172.37c2,0,6.85-.29,7.83-1.54a1.3,1.3,0,0,0,.27-1c-.16-1.39-5-22.57-5.5-25l-.15-.62H500.58l7.84,28.11Zm1.28-26.44c2,8.92,4.89,21.74,5.28,23.9-.75.42-3.51.77-6,.86l-6.9-24.76Z" transform="translate(285.44 503.22)"/><path d="M533,156.29l-3.53-14-9.71,1.23L524,158.15Zm-4.64-12.19L531.08,155,525,156.24l-3.28-11.3Z" transform="translate(285.44 503.22)"/><path d="M609.12,170.36c.56-2.41,5.48-23.56,5.65-25a1.3,1.3,0,0,0-.27-.95c-1-1.26-5.8-1.54-7.82-1.6h-.57l-8,28.06L609,171Zm-9-1.1,7-24.72c2.51.12,5.27.48,6,.91-.41,2.15-3.35,15-5.42,23.86Z" transform="translate(285.44 503.22)"/><path d="M595.46,143.45l-9.11-.87-2.91,15,9.76.17ZM585.29,156l2.26-11.6,6.14.59-1.75,11.13Z" transform="translate(285.44 503.22)"/><path d="M607.52,65.76C593.38,56.91,575.29,52,556.56,52,538,52,520.07,56.83,506,65.52s-23.33,20.62-26.3,33.7l.72.2-.71.25c.05.19,1.15,3.69,6,3.69a15.26,15.26,0,0,0,5-1l-.23-.79.72.25c3.18-11,11.22-20.94,22.62-28.08,11.62-7.28,26.28-11.29,41.28-11.29s29.45,4,41,11.12c11.35,7,19.42,16.87,22.73,27.71l.72-.27-.26.78a18.81,18.81,0,0,0,6.57,1.22,13,13,0,0,0,7.4-2.14l-.4-.71.74-.19C630.85,86.74,621.59,74.58,607.52,65.76Zm12.61,34.63c-3.5-11.08-11.76-21.09-23.29-28.24-12-7.41-26.41-11.33-41.76-11.33s-30.18,4.09-42,11.51c-11.58,7.25-19.8,17.4-23.18,28.59-6.43,2.12-8.26-.73-8.64-1.56,2.93-12.53,12-24,25.51-32.39,13.85-8.56,31.54-13.27,49.82-13.27,18.47,0,36.3,4.8,50.21,13.51,13.49,8.45,22.42,20,25.23,32.58C627.34,102.61,621.55,100.88,620.13,100.39Z" transform="translate(285.44 503.22)"/><text class="cls-7" transform="translate(630.29 820.8)">b<tspan x="50.41" y="0">e</tspan><tspan x="99.83" y="0">a</tspan><tspan x="150.12" y="0">t</tspan><tspan x="181.51" y="0">s</tspan><tspan x="229.22" y="0">C</tspan><tspan x="285.11" y="0">o</tspan><tspan x="334.51" y="0">d</tspan><tspan x="384.8" y="0">e</tspan></text></svg>